<?xml version="1.0" encoding="utf-8"?><svg viewBox="0 0 1920 512" xmlns="http://www.w3.org/2000/svg" xmlns:xlink="http://www.w3.org/1999/xlink"><style>:root>svg{display:none}:root>svg:target{display:block}</style><svg viewBox="0 0 48 48" id="close" xmlns="http://www.w3.org/2000/svg"><path d="M12.45 37.65l-2.1-2.1L21.9 24 10.35 12.45l2.1-2.1L24 21.9l11.55-11.55 2.1 2.1L26.1 24l11.55 11.55-2.1 2.1L24 26.1z"/></svg><svg viewBox="0 0 48 48" id="done" xmlns="http://www.w3.org/2000/svg"><path d="M18.9 35.7L7.7 24.5l2.15-2.15 9.05 9.05 19.2-19.2 2.15 2.15z"/></svg><svg viewBox="0 0 320 512" id="facebook" xmlns="http://www.w3.org/2000/svg"><!--! Font Awesome Pro 6.1.2 by @fontawesome - https://fontawesome.com License - https://fontawesome.com/license (Commercial License) Copyright 2022 Fonticons, Inc.--><path d="M279.14 288l14.22-92.66h-88.91v-60.13c0-25.35 12.42-50.06 52.24-50.06h40.42V6.26S260.43 0 225.36 0c-73.22 0-121.08 44.38-121.08 124.72v70.62H22.89V288h81.39v224h100.17V288z"/></svg><svg id="footer__decoration" class="dfooter-frame" data-name="Layer 1" preserveAspectRatio="none" viewBox="0 0 1920 115.984" xmlns="http://www.w3.org/2000/svg"><defs><style>.dcls-2{fill:#5f4dee}</style></defs><path class="dcls-2" d="M1616.28 381.705c-87.656 5.552-93.356-59.62-197.369-67.562-112.391-8.581-137.609 65.077-251.189 60.632-109.57-4.288-116.156-74.017-225.25-83.153-125.171-10.483-150 78.5-293 88.35-136.948 9.437-173.108-68.092-320.83-77.956C255.5 297.133 143 308.1 0 395.564v11.186h1920v-82.213c-18-6.507-43.63-14.492-76.1-15.591-103.245-3.494-138.071 67.087-227.62 72.759z" transform="translate(0 -290.766)"/></svg><svg preserveAspectRatio="none" viewBox="0 0 1920 115.984" id="footer_decoration" xmlns="http://www.w3.org/2000/svg"><path class="ecls-2" d="M1616.28 90.939c-87.656 5.552-93.356-59.62-197.369-67.562-112.391-8.581-137.609 65.077-251.189 60.632-109.57-4.288-116.156-74.017-225.25-83.153-125.171-10.483-150 78.5-293 88.35-136.948 9.437-173.108-68.092-320.83-77.956C255.5 6.367 143 17.334 0 104.798v11.186h1920V33.771c-18-6.507-43.63-14.492-76.1-15.591-103.245-3.494-138.071 67.087-227.62 72.759z"/></svg><svg viewBox="0 0 48 48" id="format_list" xmlns="http://www.w3.org/2000/svg"><path d="M8.55 39q-1.05 0-1.8-.725T6 36.55q0-1.05.75-1.8t1.8-.75q1 0 1.725.75.725.75.725 1.8 0 1-.725 1.725Q9.55 39 8.55 39zM16 38v-3h26v3zM8.55 26.5q-1.05 0-1.8-.725T6 24q0-1.05.75-1.775.75-.725 1.8-.725 1 0 1.725.75Q11 23 11 24t-.725 1.75q-.725.75-1.725.75zm7.45-1v-3h26v3zM8.5 14q-1.05 0-1.775-.725Q6 12.55 6 11.5q0-1.05.725-1.775Q7.45 9 8.5 9q1.05 0 1.775.725Q11 10.45 11 11.5q0 1.05-.725 1.775Q9.55 14 8.5 14zm7.5-1v-3h26v3z"/></svg><svg id="header" data-name="header" viewBox="0 0 279.25 197.959" xmlns="http://www.w3.org/2000/svg"><defs><style>.gcls-1{fill:#fff}.gcls-2{fill:#e5e7fd}.gcls-3{fill:#4d5068}.gcls-4{fill:#e45151}.gcls-5{fill:#5f4ded}</style></defs><path class="gcls-1" d="M8 2.761h262.741a8 8 0 018 8v179.2a8 8 0 01-8 8H8.5a8 8 0 01-8-8v-179.7a7.5 7.5 0 017.5-7.5z"/><path class="gcls-2" d="M258.516 161.264H21.19a2.8 2.8 0 00-2.836 2.747v23.083h243v-23.083a2.8 2.8 0 00-2.838-2.747z"/><path class="gcls-3" d="M272.687 0H6.563A6.469 6.469 0 000 6.371v9.653h279.25V6.371A6.469 6.469 0 00272.687 0z"/><circle class="gcls-1" cx="264.181" cy="9.041" r="2.758"/><circle class="gcls-1" cx="251.459" cy="9.041" r="2.758"/><path class="gcls-1" d="M235.718 8.1h6.036a.94.94 0 01.937.937.94.94 0 01-.937.937h-6.036a.94.94 0 01-.937-.937.94.94 0 01.937-.937z"/><rect class="gcls-2" x="18.507" y="27.412" width="56.847" height="24.81" rx="2.135" ry="2.135"/><circle class="gcls-1" cx="47.436" cy="39.817" r="7.441"/><rect class="gcls-2" x="212.686" y="27.412" width="48.665" height="24.81" rx="2.135" ry="2.135"/><circle class="gcls-1" cx="237.019" cy="39.817" r="7.441"/><rect class="gcls-2" x="82.261" y="27.412" width="122.846" height="24.81" rx="2.135" ry="2.135"/><path class="gcls-2" d="M257.778 67.453H21.928a3.529 3.529 0 01-3.574-3.462 3.529 3.529 0 013.574-3.462h235.85a3.529 3.529 0 013.574 3.462 3.529 3.529 0 01-3.574 3.462zM257.778 154.913H21.928a3.529 3.529 0 01-3.574-3.462 3.529 3.529 0 013.574-3.462h235.85a3.529 3.529 0 013.574 3.462 3.529 3.529 0 01-3.574 3.462z"/><path class="gcls-1" d="M245.088 175.112H42.219a3.472 3.472 0 01-3.462-3.462 3.472 3.472 0 013.462-3.462h202.869a3.472 3.472 0 013.462 3.462 3.472 3.472 0 01-3.462 3.462z"/><path class="gcls-2" d="M257.862 130.172H99.951a3.5 3.5 0 01-3.523-3.462 3.5 3.5 0 013.523-3.462h157.911a3.5 3.5 0 013.523 3.462 3.5 3.5 0 01-3.523 3.462zM98.085 136.283h148.674a1.662 1.662 0 011.662 1.662v.139a1.662 1.662 0 01-1.662 1.662H98.085a1.661 1.661 0 01-1.661-1.661v-.139a1.661 1.661 0 011.661-1.663zM179.14 74.636h79.017a3.194 3.194 0 013.194 3.194v35.04a3.195 3.195 0 01-3.195 3.195H179.14a3.195 3.195 0 01-3.195-3.195V77.831a3.195 3.195 0 013.195-3.195z"/><rect class="gcls-2" x="96.354" y="74.636" width="69.812" height="41.429" rx="2.863" ry="2.863"/><path class="gcls-3" d="M52.331 75.846a32.375 32.375 0 1032.375 32.375 32.375 32.375 0 00-32.375-32.375zm0 48.813a16.438 16.438 0 1116.438-16.438 16.438 16.438 0 01-16.438 16.438z"/><path class="gcls-4" d="M52.331 75.846a32.271 32.271 0 00-12.473 2.493L46 93.051a16.428 16.428 0 0122.751 14.794l15.938-.365a32.369 32.369 0 00-32.358-31.634z"/><path class="gcls-5" d="M68.768 108.221a16.439 16.439 0 01-30.068 9.186l-13.218 8.906a32.378 32.378 0 0059.227-18.092c0-.249-.013-.494-.019-.741l-15.938.365c0 .126.016.249.016.376z"/><circle class="gcls-1" cx="108.823" cy="84.224" r="3.695"/><circle class="gcls-1" cx="108.823" cy="95.351" r="3.695"/><circle class="gcls-1" cx="108.823" cy="106.477" r="3.695"/><path class="gcls-1" d="M156.649 85.457h-38.811a1.236 1.236 0 01-1.233-1.233 1.236 1.236 0 011.233-1.233h38.811a1.236 1.236 0 011.233 1.233 1.236 1.236 0 01-1.233 1.233zM156.649 96.583h-38.811a1.236 1.236 0 01-1.233-1.233 1.236 1.236 0 011.233-1.233h38.811a1.236 1.236 0 011.233 1.233 1.236 1.236 0 01-1.233 1.233zM156.649 107.71h-38.811a1.236 1.236 0 01-1.233-1.233 1.236 1.236 0 011.233-1.233h38.811a1.236 1.236 0 011.233 1.233 1.236 1.236 0 01-1.233 1.233z"/></svg><svg id="header_decoration" class="hheader-decoration" data-name="Layer 3" preserveAspectRatio="none" viewBox="0 0 1920 305.139" xmlns="http://www.w3.org/2000/svg"><defs><style>.hcls-1{fill:#fff}</style></defs><path class="hcls-1" d="M1486.486 36.773c-51.955-23.115-85.418-41.873-157.434-35.522-92.939 8.2-152.759 70.189-180.71 89.478-23.154 15.979-134.286 104.091-171.753 128.16-50.559 32.48-98.365 59.228-166.492 67.5-67.648 8.21-124.574-6.25-152.992-18-42.218-17.454-42.218-17.454-90-39-35.411-15.967-81.61-34.073-141.58-34.054-116.6.037-262.78 77.981-354.895 80.062-17.53.396-47.88-1.831-70.63-14.831v44.573h1920V61.316c-36.724 23.238-76.008 61.68-177 65-87.585 2.884-186.784-58.516-256.514-89.543z"/></svg><svg viewBox="0 0 448 512" id="instagram" xmlns="http://www.w3.org/2000/svg"><!--! Font Awesome Pro 6.1.2 by @fontawesome - https://fontawesome.com License - https://fontawesome.com/license (Commercial License) Copyright 2022 Fonticons, Inc.--><path d="M224.1 141c-63.6 0-114.9 51.3-114.9 114.9s51.3 114.9 114.9 114.9S339 319.5 339 255.9 287.7 141 224.1 141zm0 189.6c-41.1 0-74.7-33.5-74.7-74.7s33.5-74.7 74.7-74.7 74.7 33.5 74.7 74.7-33.6 74.7-74.7 74.7zm146.4-194.3c0 14.9-12 26.8-26.8 26.8-14.9 0-26.8-12-26.8-26.8s12-26.8 26.8-26.8 26.8 12 26.8 26.8zm76.1 27.2c-1.7-35.9-9.9-67.7-36.2-93.9-26.2-26.2-58-34.4-93.9-36.2-37-2.1-147.9-2.1-184.9 0-35.8 1.7-67.6 9.9-93.9 36.1s-34.4 58-36.2 93.9c-2.1 37-2.1 147.9 0 184.9 1.7 35.9 9.9 67.7 36.2 93.9s58 34.4 93.9 36.2c37 2.1 147.9 2.1 184.9 0 35.9-1.7 67.7-9.9 93.9-36.2 26.2-26.2 34.4-58 36.2-93.9 2.1-37 2.1-147.8 0-184.8zM398.8 388c-7.8 19.6-22.9 34.7-42.6 42.6-29.5 11.7-99.5 9-132.1 9s-102.7 2.6-132.1-9c-19.6-7.8-34.7-22.9-42.6-42.6-11.7-29.5-9-99.5-9-132.1s-2.6-102.7 9-132.1c7.8-19.6 22.9-34.7 42.6-42.6 29.5-11.7 99.5-9 132.1-9s102.7-2.6 132.1 9c19.6 7.8 34.7 22.9 42.6 42.6 11.7 29.5 9 99.5 9 132.1s2.7 102.7-9 132.1z"/></svg><svg viewBox="0 0 448 512" id="linkedin" xmlns="http://www.w3.org/2000/svg"><!--! Font Awesome Pro 6.1.2 by @fontawesome - https://fontawesome.com License - https://fontawesome.com/license (Commercial License) Copyright 2022 Fonticons, Inc.--><path d="M100.28 448H7.4V148.9h92.88zM53.79 108.1C24.09 108.1 0 83.5 0 53.8a53.79 53.79 0 01107.58 0c0 29.7-24.1 54.3-53.79 54.3zM447.9 448h-92.68V302.4c0-34.7-.7-79.2-48.29-79.2-48.29 0-55.69 37.7-55.69 76.7V448h-92.78V148.9h89.08v40.8h1.3c12.4-23.5 42.69-48.3 87.88-48.3 94 0 111.28 61.9 111.28 142.3V448z"/></svg><svg viewBox="0 0 106 42" id="logo" xmlns="http://www.w3.org/2000/svg"><path class="kcls-1" d="M31.069 9.212h-11.02l-6.764 32.1H4.419l6.738-32.1H0l1.555-7.21h31.069zM42.907 41.068q-.49.138-1.13.274t-1.365.26q-.723.124-1.5.192t-1.541.069a9.017 9.017 0 01-3.123-.48 5.726 5.726 0 01-2.141-1.343 5.267 5.267 0 01-1.241-2.056 8.291 8.291 0 01-.4-2.619q0-.6.068-1.343t.178-1.549q.108-.809.259-1.645t.314-1.6q.108-.465.368-1.713t.6-2.866q.347-1.617.726-3.417t.721-3.412q.341-1.617.6-2.866t.37-1.712h8.73l-3.329 15.79q-.219.96-.464 2.152a10.5 10.5 0 00-.245 2.07 1.579 1.579 0 00.654 1.453 2.757 2.757 0 001.5.411 7.018 7.018 0 001.433-.151 7.285 7.285 0 001.321-.4q-.354 1.646-.682 3.249t-.681 3.252zm2.837-36.874a4.383 4.383 0 01-.408 1.919 4.635 4.635 0 01-1.106 1.468 4.835 4.835 0 01-1.635.945 6.125 6.125 0 01-2.033.329 5.678 5.678 0 01-1.923-.316 4.63 4.63 0 01-1.527-.877 4.1 4.1 0 01-1.012-1.33 3.813 3.813 0 01-.368-1.672 4.374 4.374 0 011.487-3.385 4.819 4.819 0 011.652-.943A6.291 6.291 0 0140.944 0a5.592 5.592 0 011.908.315 4.716 4.716 0 011.516.877 4.134 4.134 0 011.008 1.33 3.819 3.819 0 01.368 1.672zM62.466 41.315h-9.6l-3.684-28.073h8.592l1.119 15.545q.054.521.1 1.26t.068 1.536q.027.8.041 1.577a12.4 12.4 0 01-.041 1.357h.108c.145-.385.318-.809.519-1.276l.628-1.452c.218-.502.44-1.005.667-1.508s.441-.982.641-1.439l7.5-15.6h9.493zM106 24.372a21.95 21.95 0 01-.381 4 19.769 19.769 0 01-1.2 4.017 17.731 17.731 0 01-2.115 3.715 13.717 13.717 0 01-3.136 3.057 15.409 15.409 0 01-4.256 2.071 18.139 18.139 0 01-5.5.768 14.788 14.788 0 01-5.414-.9 10.322 10.322 0 01-3.806-2.5 10.139 10.139 0 01-2.233-3.768 14.594 14.594 0 01-.737-4.7 21.5 21.5 0 01.409-4.126 19.056 19.056 0 011.269-4.047 17.3 17.3 0 012.2-3.66 14.224 14.224 0 013.191-2.988 15.579 15.579 0 014.242-2.015 18.047 18.047 0 015.359-.74 14.8 14.8 0 015.17.836 10.351 10.351 0 013.792 2.385 10.229 10.229 0 012.346 3.728 13.969 13.969 0 01.8 4.867zm-8.7.11a7.884 7.884 0 00-.273-2.125 4.93 4.93 0 00-.8-1.672 3.831 3.831 0 00-1.3-1.1 3.789 3.789 0 00-1.772-.4 5.07 5.07 0 00-3.069.987 8.458 8.458 0 00-2.28 2.56 13.132 13.132 0 00-1.419 3.5 15.909 15.909 0 00-.487 3.9 5.811 5.811 0 001.16 3.866 3.759 3.759 0 003.014 1.37 5.254 5.254 0 003.123-.96 8.028 8.028 0 002.264-2.509 12.582 12.582 0 001.378-3.5 16.881 16.881 0 00.461-3.917z"/></svg><svg viewBox="0 0 48 48" id="mark_as_unread" xmlns="http://www.w3.org/2000/svg"><path d="M7 34.05Q5.85 33.8 4.925 33 4 32.2 4 31.05V13.9q0-.6.25-1.125t.95-.875l16-7.9 15.35 7.9q.45.35.9 1.025.45.675.6 1.225h-3.7L21.2 7.35 7 14.4zM11.5 42q-1.2 0-2.1-.925-.9-.925-.9-2.075V18.65q0-1.15.9-2.075.9-.925 2.1-.925H41q1.15 0 2.075.925Q44 17.5 44 18.65V39q0 1.15-.925 2.075Q42.15 42 41 42zm14.75-12.9L11.5 21.85V39H41V21.85zm0-3.35l14.45-7.1H11.8zM41 18.65H11.5 41z"/></svg><svg viewBox="0 0 48 48" id="monitoring" xmlns="http://www.w3.org/2000/svg"><path d="M6 42v-3.8l3-3V42zm8.25 0V30.2l3-3V42zm8.25 0V27.2l3 3.05V42zm8.25 0V30.25l3-3V42zM39 42V22.2l3-3V42zM6 30.2v-4.25l14-13.9 8 8L42 6v4.25L28 24.3l-8-8z"/></svg><svg viewBox="0 0 384 512" id="pinterest" xmlns="http://www.w3.org/2000/svg"><!--! Font Awesome Pro 6.1.2 by @fontawesome - https://fontawesome.com License - https://fontawesome.com/license (Commercial License) Copyright 2022 Fonticons, Inc.--><path d="M204 6.5C101.4 6.5 0 74.9 0 185.6 0 256 39.6 296 63.6 296c9.9 0 15.6-27.6 15.6-35.4 0-9.3-23.7-29.1-23.7-67.8 0-80.4 61.2-137.4 140.4-137.4 68.1 0 118.5 38.7 118.5 109.8 0 53.1-21.3 152.7-90.3 152.7-24.9 0-46.2-18-46.2-43.8 0-37.8 26.4-74.4 26.4-113.4 0-66.2-93.9-54.2-93.9 25.8 0 16.8 2.1 35.4 9.6 50.7-13.8 59.4-42 147.9-42 209.1 0 18.9 2.7 37.5 4.5 56.4 3.4 3.8 1.7 3.4 6.9 1.5 50.4-69 48.6-82.5 71.4-172.8 12.3 23.4 44.1 36 69.3 36 106.2 0 153.9-103.5 153.9-196.8C384 71.3 298.2 6.5 204 6.5z"/></svg><svg viewBox="0 0 48 48" id="play_arrow" xmlns="http://www.w3.org/2000/svg"><path d="M16 37.85v-28l22 14zm3-14zm0 8.55l13.45-8.55L19 15.3z"/></svg><svg viewBox="0 0 512 512" id="twitter" xmlns="http://www.w3.org/2000/svg"><!--! Font Awesome Pro 6.1.2 by @fontawesome - https://fontawesome.com License - https://fontawesome.com/license (Commercial License) Copyright 2022 Fonticons, Inc.--><path d="M459.37 151.716c.325 4.548.325 9.097.325 13.645 0 138.72-105.583 298.558-298.558 298.558-59.452 0-114.68-17.219-161.137-47.106 8.447.974 16.568 1.299 25.34 1.299 49.055 0 94.213-16.568 130.274-44.832-46.132-.975-84.792-31.188-98.112-72.772 6.498.974 12.995 1.624 19.818 1.624 9.421 0 18.843-1.3 27.614-3.573-48.081-9.747-84.143-51.98-84.143-102.985v-1.299c13.969 7.797 30.214 12.67 47.431 13.319-28.264-18.843-46.781-51.005-46.781-87.391 0-19.492 5.197-37.36 14.294-52.954 51.655 63.675 129.3 105.258 216.365 109.807-1.624-7.797-2.599-15.918-2.599-24.04 0-57.828 46.782-104.934 104.934-104.934 30.213 0 57.502 12.67 76.67 33.137 23.715-4.548 46.456-13.32 66.599-25.34-7.798 24.366-24.366 44.833-46.132 57.827 21.117-2.273 41.584-8.122 60.426-16.243-14.292 20.791-32.161 39.308-52.628 54.253z"/></svg></svg>